# 3ds Max Wavefront OBJ Exporter v0.97b - (c)2007 guruware
# File Created: 24.04.2018 21:43:18

mtllib CornellBox-me.mtl

#
# object Box001
#

v  -5.2930 -6.2882 -5.3311
v  5.7762 -6.2882 -5.3311
v  5.7762 6.0335 -5.3311
v  -5.2930 6.0335 -5.3311
v  -5.2930 -6.2882 7.6699
v  -5.2930 6.0335 7.6699
v  5.7762 6.0335 7.6699
v  5.7762 -6.2882 7.6699
# 8 vertices

vn 0.0000 0.0000 1.0000
vn 0.0000 0.0000 -1.0000
vn -1.0000 0.0000 0.0000
vn 0.0000 -1.0000 0.0000
vn 1.0000 0.0000 0.0000
# 5 vertex normals

vt 1.0000 0.0000 0.0000
vt 0.0000 0.0000 0.0000
vt 0.0000 1.0000 0.0000
vt 1.0000 1.0000 0.0000
# 4 texture coords

g Box001
usemtl 01___Default
s 2
f 1/1/1 2/2/1 3/3/1 
f 3/3/1 4/4/1 1/1/1 
s 4
f 5/2/2 6/3/2 7/4/2 
f 7/4/2 8/1/2 5/2/2 
usemtl green
s 16
f 2/2/3 8/3/3 7/4/3 
f 7/4/3 3/1/3 2/2/3 
usemtl 01___Default
s 32
f 3/2/4 7/3/4 6/4/4 
f 6/4/4 4/1/4 3/2/4 
usemtl red
s 64
f 4/2/5 6/3/5 5/4/5 
f 5/4/5 1/1/5 4/2/5 
# 10 faces

#
# object Plane001
#

v  1.7810 2.8421 7.3205
v  1.7810 -0.8871 7.3205
v  -1.2977 2.8421 7.3205
v  -1.2977 -0.8871 7.3205
# 4 vertices

vn 0.0000 0.0000 -1.0000
# 1 vertex normals

vt 0.0000 1.0000 0.0000
vt 0.0000 0.0000 0.0000
vt 1.0000 1.0000 0.0000
vt 1.0000 0.0000 0.0000
# 4 texture coords

g Plane001
usemtl 02___Default
s 1
f 9/5/6 10/6/6 11/7/6 
f 12/8/6 11/7/6 10/6/6 
# 2 faces

#
# object Box002
#

v  0.8897 1.9501 -5.3311
v  2.4931 3.8610 -5.3311
v  4.5942 2.0980 -5.3311
v  2.9908 0.1871 -5.3311
v  0.8897 1.9501 -1.8542
v  2.9908 0.1871 -1.8542
v  4.5942 2.0980 -1.8542
v  2.4931 3.8610 -1.8542
# 8 vertices

vn 0.0000 0.0000 -1.0000
vn 0.0000 0.0000 1.0000
vn -0.6428 -0.7660 0.0000
vn 0.7660 -0.6428 0.0000
vn 0.6428 0.7660 0.0000
vn -0.7660 0.6428 0.0000
# 6 vertex normals

vt 1.0000 0.0000 0.0000
vt 1.0000 1.0000 0.0000
vt 0.0000 1.0000 0.0000
vt 0.0000 0.0000 0.0000
# 4 texture coords

g Box002
usemtl 03___Default
s 2
f 13/9/7 14/10/7 15/11/7 
f 15/11/7 16/12/7 13/9/7 
s 4
f 17/12/8 18/9/8 19/10/8 
f 19/10/8 20/11/8 17/12/8 
s 8
f 13/12/9 16/9/9 18/10/9 
f 18/10/9 17/11/9 13/12/9 
s 16
f 16/12/10 15/9/10 19/10/10 
f 19/10/10 18/11/10 16/12/10 
s 32
f 15/12/11 14/9/11 20/10/11 
f 20/10/11 19/11/11 15/12/11 
s 64
f 14/12/12 13/9/12 17/10/12 
f 17/10/12 20/11/12 14/12/12 
# 12 faces

#
# object Box003
#

v  -3.7519 2.2140 -5.3311
v  -1.7893 4.5529 -5.3311
v  0.0199 3.0347 -5.3311
v  -1.9426 0.6959 -5.3311
v  -3.7519 2.2140 0.8346
v  -1.9426 0.6959 0.8346
v  0.0199 3.0347 0.8346
v  -1.7893 4.5529 0.8346
# 8 vertices

vn 0.0000 0.0000 -1.0000
vn 0.0000 0.0000 1.0000
vn -0.6428 -0.7660 0.0000
vn 0.7660 -0.6428 0.0000
vn 0.6428 0.7660 0.0000
vn -0.7660 0.6428 0.0000
# 6 vertex normals

vt 1.0000 0.0000 0.0000
vt 1.0000 1.0000 0.0000
vt 0.0000 1.0000 0.0000
vt 0.0000 0.0000 0.0000
# 4 texture coords

g Box003
usemtl 03___Default
s 2
f 21/13/13 22/14/13 23/15/13 
f 23/15/13 24/16/13 21/13/13 
s 4
f 25/16/14 26/13/14 27/14/14 
f 27/14/14 28/15/14 25/16/14 
s 8
f 21/16/15 24/13/15 26/14/15 
f 26/14/15 25/15/15 21/16/15 
s 16
f 24/16/16 23/13/16 27/14/16 
f 27/14/16 26/15/16 24/16/16 
s 32
f 23/16/17 22/13/17 28/14/17 
f 28/14/17 27/15/17 23/16/17 
s 64
f 22/16/18 21/13/18 25/14/18 
f 25/14/18 28/15/18 22/16/18 
# 12 faces

